<?xml version="1.0" ?><svg xmlns="http://www.w3.org/2000/svg"   width="128" height="128"  viewBox="0 0 128 128"><g><path fill="#f7f0fb"  d="M56.456,96.336a.5.5,0,0,0-.1-.369L41.717,77.285a.492.492,0,0,0-.082-.069c-.009-.008-.011-.022-.021-.029s-.013,0-.019-.006a.494.494,0,0,0-.262-.08c-.016,0-.03,0-.045,0a.486.486,0,0,0-.273.1L29.864,85.936a.489.489,0,0,0-.035-.259c-1.671-3.614-4.381-4.682-8.049-3.2-.868-2.545-1.776-5.449-2.572-8.5a5.356,5.356,0,0,0,3.956,1.815,7.445,7.445,0,0,0,3.112-.766.5.5,0,0,0,.244-.664c-1.665-3.6-4.357-4.678-8-3.221A57.692,57.692,0,0,1,16.9,58.8a5.5,5.5,0,0,0,5.5,3.446c.229,0,.463-.009.7-.026a.5.5,0,0,0,.464-.533c-.283-4.019-2.479-5.963-6.54-5.835a14.527,14.527,0,0,1,2.945-8.131c0-.005,0-.012.01-.018.775-.177,1.736-.423,2.919-.755a.533.533,0,0,0,.1,0c3.232-.594,5.793,2.144,7.656,5.429-3.569,1.65-4.571,4.432-2.964,8.279a.5.5,0,0,0,.294.279.508.508,0,0,0,.4-.031c2.494-1.343,3.79-3.079,3.885-5.181a45.007,45.007,0,0,1,2.047,6.136.5.5,0,0,0,.486.386.581.581,0,0,0,.116-.013.5.5,0,0,0,.371-.6,44.311,44.311,0,0,0-2.329-6.879,5.583,5.583,0,0,0,2.8.807,6.5,6.5,0,0,0,4.123-1.7.5.5,0,0,0,.067-.7c-2.479-3-5.3-3.407-8.384-1.215-1.5-2.653-3.467-5.013-5.92-5.8q1.743-.531,3.971-1.256a9.818,9.818,0,0,0,4.224,2.668.446.446,0,0,0,.163.052l.032.009h.009a9.99,9.99,0,0,0,1.648.35c6.009,1.619,9.878,7.005,13.975,12.707,4.595,6.4,9.353,12.991,17.573,14.913C72.942,79.5,77.213,85.1,80.333,89.2a43.64,43.64,0,0,0,4.2,5.052c3.968,3.674,9.165,1.574,10.482.946a8.635,8.635,0,0,0,5.528,2.108c3.777,0,6.775-2.671,7.559-3.44,2.258.4,3.986.106,5.134-.884a4.314,4.314,0,0,0,1.386-3.252.5.5,0,0,0-.214-.386A78.959,78.959,0,0,1,94.06,68.137a32.8,32.8,0,0,0,9.445-12.914c3.212-8.715,1.171-11.567.172-12.381,3.293-6.969,1.653-10.409,1.046-11.33.53-1.48,2.486-7.53-.308-9.174-1.492-.875-4.53,1.043-9.57,4.217-1.669,1.051-3.535,2.219-5.545,3.418a11.4,11.4,0,0,0,.176-2.479,7.951,7.951,0,0,0-2.437-5.936,7.116,7.116,0,0,0-4.514-1.637A6.976,6.976,0,0,0,76.907,13.6a.5.5,0,0,0-.543.325c-4.588,12.744-16.2,20.912-22.883,24.72a23.154,23.154,0,0,1-8.564-5.057,11.725,11.725,0,0,0-2.187-1.516,10.471,10.471,0,0,0-5.586-1.586c-5.359,0-9.719,3.9-9.765,8.719-11.158,6.66-11.164,7.731-11.164,8.2a.667.667,0,0,0,.285.539,1.116,1.116,0,0,0,.768.187A7.86,7.86,0,0,0,18.515,48a16.459,16.459,0,0,0-2.484,7.58c-3.623-.531-5.9,1.179-6.8,5.094a.5.5,0,0,0,.425.608,11.385,11.385,0,0,0,1.414.094,5.657,5.657,0,0,0,4.809-2.139A58.824,58.824,0,0,0,17.488,71.31c-3.687.75-5.3,3.152-4.733,7.189a.5.5,0,0,0,.495.431.468.468,0,0,0,.117-.014c2.718-.655,4.382-1.993,5.028-3.96.734,2.725,1.555,5.332,2.362,7.684C17.1,83.4,15.5,85.8,16.064,89.82a.5.5,0,0,0,.5.432.469.469,0,0,0,.117-.015c2.959-.713,4.684-2.226,5.185-4.492.734,1.986,1.407,3.672,1.934,4.943L9.977,101.511c-.007.005-.007.014-.014.02a.482.482,0,0,0-.138.208.465.465,0,0,0-.021.063c0,.016-.013.03-.015.047a.482.482,0,0,0,.029.223s0,.008,0,.012.013.012.016.021a.5.5,0,0,0,.058.113L24.528,120.9a.5.5,0,0,0,.7.085L56.269,96.669A.5.5,0,0,0,56.456,96.336ZM25.386,74.315c-2.691,1.07-4.758.339-6.441-2.281C21.894,70.872,23.961,71.6,25.386,74.315Zm3.027-14.574c-1.076-2.984-.284-5.027,2.467-6.371C31.871,56.091,31.08,58.135,28.413,59.741ZM38.848,53.4c-2.321,1.712-4.5,1.536-6.777-.543l-.018-.034C34.607,50.955,36.786,51.14,38.848,53.4Zm74.77,36.614a3.259,3.259,0,0,1-1.041,2.222c-.938.8-2.447,1.006-4.477.614-5.967-2.665-12.3-12.336-12.36-12.434a.5.5,0,1,0-.838.545c.257.4,6.158,9.4,12.194,12.5-1.521,1.415-6.469,5.232-11.686.769-.009-.008-.021-.007-.031-.013s-.007-.01-.013-.014c-3.919-2.714-8.75-9.455-8.8-9.523a.5.5,0,0,0-.814.581c.19.267,4.459,6.221,8.354,9.254-1.638.687-5.728,1.94-8.893-.992a43.16,43.16,0,0,1-4.086-4.924c-2.847-3.74-6.651-8.711-11.636-12.589a28.168,28.168,0,0,0,3.847.266,31.918,31.918,0,0,0,19.948-7.489A79.991,79.991,0,0,0,113.618,90.01ZM77.154,14.676a5.93,5.93,0,0,1,4.412,5.787c0,.009.006.017.007.026a.456.456,0,0,0,0,.064c.592,2.53-1.512,5.681-1.533,5.713a.5.5,0,0,0,.134.694.491.491,0,0,0,.28.086.5.5,0,0,0,.414-.219c.09-.134,2.071-3.1,1.779-5.9a6.087,6.087,0,0,1,3.742,1.39,7,7,0,0,1,2.085,5.214,10.035,10.035,0,0,1-.361,3.14A88.923,88.923,0,0,1,71.7,38.367a28.065,28.065,0,0,1-16.926.686C61.591,35.042,72.543,26.994,77.154,14.676Zm-40.01,16.81a9.5,9.5,0,0,1,5.086,1.452,10.907,10.907,0,0,1,2,1.371,24.154,24.154,0,0,0,8.979,5.3.492.492,0,0,0,.289.107l.01,0a28.782,28.782,0,0,0,18.512-.4A90.134,90.134,0,0,0,88.77,31.448l.018-.01c2.417-1.418,4.635-2.8,6.59-4.037,4.061-2.558,7.572-4.765,8.529-4.2,1.939,1.14.508,6.3-.21,8.2-6.987,17.08-30.762,20.761-31,20.8a.5.5,0,0,0,.072,1,.459.459,0,0,0,.073-.006c.241-.035,23.713-3.673,31.372-20.5.549,1.326,1.136,4.466-1.623,10.1C92.965,59.76,79.71,61.232,79.577,61.245a.5.5,0,0,0,.047,1,.375.375,0,0,0,.048,0c.136-.012,13.637-1.489,23.512-18.488.749.751,2.245,3.357-.617,11.125a31.915,31.915,0,0,1-9.38,12.713.662.662,0,0,0-.062.024.5.5,0,0,0-.146.147c-6.4,5.312-15.154,8.848-24.725,7.03-8.343-1.584-13.134-8.254-17.768-14.7-3.913-5.447-7.625-10.608-13.3-12.687a6.062,6.062,0,0,0,3.435-2.755.5.5,0,1,0-.855-.518,5.24,5.24,0,0,1-5.491,2.512l-.033-.012a7.92,7.92,0,0,1-5.87-7.347C28.375,34.982,32.309,31.486,37.144,31.486Zm-9.692,8.841a8.22,8.22,0,0,0,1.5,3.722c-6.863,2.221-10.374,3.039-11.531,3.087C18.2,46.266,21.154,44.105,27.452,40.327ZM17.44,56.824c3.091,0,4.723,1.419,5.085,4.418-2.853.066-4.567-1.372-5.211-4.418Zm-7.093,3.521c.848-3.018,2.648-4.222,5.605-3.763-.01.133-.024.262-.031.4C15.085,59.48,13.3,60.569,10.347,60.345ZM13.681,77.8c-.283-3.159,1-4.934,4-5.534C17.953,75.148,16.668,76.924,13.681,77.8ZM16.99,89.12c-.282-3.16,1-4.935,4.005-5.535C21.263,86.469,19.977,88.245,16.99,89.12ZM40.31,79.025l-4.883,14.34a3.134,3.134,0,0,0-2.508.691,4.032,4.032,0,0,0-1.41,3.512,4.027,4.027,0,0,0-3.743.526,3.129,3.129,0,0,0-1.266,2.163L11.887,101.29,24.751,91.212l.013-.01L31.405,86ZM28.367,98.893a2.938,2.938,0,0,1,1.754-.566,3.231,3.231,0,0,1,1.836.587.5.5,0,0,0,.751-.588,3.08,3.08,0,0,1,.843-3.494,2.112,2.112,0,0,1,2.541-.175c2.447,1.681,1.65,4.065.727,6.825-.223.67-.454,1.36-.637,2.051-.715.012-1.44.072-2.144.129-2.9.234-5.406.439-6.446-2.321A2.122,2.122,0,0,1,28.367,98.893Zm.327-13.257c-2.694,1.069-4.757.338-6.439-2.281C25.206,82.192,27.271,82.926,28.694,85.636Zm-5.772.06a5.206,5.206,0,0,0,3.55,1.411,7.094,7.094,0,0,0,2.611-.56l-4.471,3.5C24.191,89.021,23.6,87.524,22.922,85.7Zm2.085,34.194L11.256,102.337l15.289-1.081a3.593,3.593,0,0,0,.1.418c.973,2.584,2.947,3.112,5.136,3.112.763,0,1.552-.064,2.333-.128s1.584-.128,2.35-.128c.034,0,.082,0,.1,0a.5.5,0,0,0,.487-.384c.184-.773.452-1.573.71-2.347.962-2.88,1.959-5.859-1.127-7.977-.087-.054-.176-.095-.265-.14L41.5,78.631,55.258,96.19Z"/><path fill="#f7f0fb" d="M62.717,25.83a.5.5,0,0,0-.052-.526c-.058-.075-5.885-7.443-17.771-5.3C43.858,17.65,37.808,5.49,24.292,7.048,9.389,8.771,7.449,25.388,7.432,25.556a.5.5,0,0,0,.5.553h54.34A.5.5,0,0,0,62.717,25.83Zm-54.21-.721C8.978,22.277,11.8,9.5,24.407,8.041,37.125,6.58,42.889,17.963,43.941,20.324a3.27,3.27,0,0,0-1.909,2.229.5.5,0,0,0,.42.559.484.484,0,0,0,.075.006.5.5,0,0,0,.494-.421c.008-.043.2-1.064,1.71-1.64,9.1-1.77,14.5,2.258,16.381,4.052Z"/><circle fill="#f7f0fb" cx="35.027" cy="37.1" r="1.5"/><path fill="#f7f0fb" d="M70.17,35.805a.518.518,0,0,0,.188-.036c.216-.088,5.322-2.2,8.029-6.463a.5.5,0,1,0-.844-.536c-2.532,3.989-7.512,6.052-7.562,6.072a.5.5,0,0,0,.189.963Z"/></g></svg>